<svg width="251" height="47" viewBox="0 0 251 47" fill="none" xmlns="http://www.w3.org/2000/svg">
<path d="M21.0115 0C34.0252 0 44.0239 8.95579 44.0239 22.2462C44.0239 35.5367 34.0205 44.7884 21.0115 44.7884H6.38679C3.44683 44.7743 0.999996 42.8159 0.999996 39.3876V5.57448C0.999996 2.16968 3.44683 0 6.38679 0H21.0115Z" fill="#FF6900"/>
<path d="M35.9837 17.4186C35.9132 17.9775 35.2839 17.9775 35.0021 17.489C34.091 15.9487 32.9028 15.6716 31.0148 15.5307C29.6059 15.4603 27.9387 15.6011 26.3983 15.6011C26.3569 15.6057 26.315 15.602 26.2751 15.5903C26.2352 15.5785 26.198 15.559 26.1657 15.5328C26.1334 15.5066 26.1066 15.4742 26.0868 15.4376C26.0671 15.401 26.0548 15.3608 26.0507 15.3194C26.3325 13.9903 27.4596 11.5623 28.6384 11.3322C29.1973 11.2618 30.456 11.1209 31.1557 11.1209C34.3728 11.1209 36.1245 14.831 35.9837 17.4186ZM17.7944 30.0985C20.1647 30.7283 22.6223 30.9647 25.0692 30.7983C28.2752 30.5819 31.3772 29.5716 34.0957 27.8584C33.0437 30.5259 29.0564 32.1837 25.2758 32.6017C25.2758 32.813 25.2054 32.9492 25.2054 33.1605C28.0749 33.0196 30.8035 32.0428 32.0621 31.2022C31.3624 33.7898 27.8635 34.8418 24.6465 35.0484C24.5667 35.2415 24.4725 35.4283 24.3647 35.6073C25.9527 35.6303 27.5353 35.4182 29.0611 34.978C27.5865 37.7112 21.2885 39.5991 15.9722 37.1007C17.0792 34.9279 17.6994 32.54 17.7897 30.1032L17.7944 30.0985ZM35.3543 11.4731C34.7661 10.9164 34.0738 10.4813 33.317 10.1928C32.5602 9.9043 31.7539 9.76804 30.9444 9.79185C28.8451 9.79185 27.098 10.3507 24.5056 10.4212C22.7585 10.4916 21.1477 6.66413 19.0484 6.15224C18.1419 4.12814 16.0286 3.84637 14.784 4.89833C13.5958 4.19859 11.7736 4.55081 11.7078 5.87985C10.3788 5.46188 8.63168 6.16163 9.3972 7.97909C6.10971 8.04953 5.55083 10.9894 7.71588 11.2665C4.84637 12.8773 6.17546 15.6763 8.55654 15.1127C8.98392 19.3112 10.8625 24.7683 7.78633 26.0973C7.43879 26.2382 6.03926 26.5669 3.37639 25.9564C2.60617 25.7451 1.76551 25.5385 0.9953 25.3271V27.4968C3.30594 28.0557 5.61188 28.4783 7.10065 28.3374C11.1584 27.9195 11.3697 24.5804 11.1584 21.6218C10.947 18.6631 9.97017 15.3945 10.3177 13.0182L10.1768 12.8773C8.70683 14.4177 7.72997 13.995 7.58908 13.5066C7.37774 12.5251 9.12951 11.2665 10.1064 10.8485C10.1064 10.7781 10.1768 10.7076 10.1768 10.6372C9.2657 10.7781 8.14795 10.6372 8.07751 10.0079C8.00706 9.23769 9.61793 8.4675 11.7172 8.67883C11.7877 8.67883 11.7877 8.60839 11.8581 8.60839L11.4401 8.39706C10.8813 8.11528 10.7404 7.62687 10.9705 7.34979C11.1293 7.17894 11.3257 7.04752 11.5442 6.96599C11.7627 6.88446 11.9973 6.85507 12.2291 6.88016C12.8775 6.88832 13.5171 7.03063 14.1077 7.29813C14.1782 7.29813 14.1782 7.22768 14.2486 7.22768C14.1077 7.0868 13.9011 6.94591 13.8306 6.80972C13.7501 6.70753 13.7099 6.57932 13.7177 6.44945C13.7255 6.31958 13.7807 6.1971 13.8729 6.10527C14.1474 5.97029 14.4573 5.92487 14.7589 5.97543C15.0606 6.02598 15.3388 6.16996 15.5542 6.38705L15.9017 6.73457C15.94 6.73935 15.9788 6.7355 16.0154 6.72331C16.052 6.71112 16.0853 6.6909 16.1131 6.66413C15.9899 6.53714 15.9151 6.37095 15.9017 6.1945C15.8799 6.13954 15.8699 6.08056 15.8725 6.02145C15.8751 5.96235 15.8902 5.90447 15.9168 5.85164C15.9435 5.79881 15.981 5.75224 16.027 5.71501C16.073 5.67777 16.1263 5.65072 16.1835 5.63565C16.3422 5.60799 16.5054 5.62598 16.6543 5.6875C16.8031 5.74903 16.9314 5.85156 17.0242 5.98317C17.2027 6.25327 17.3418 6.54739 17.4375 6.85668C15.9675 6.99757 14.2204 7.55642 13.1684 9.02636C12.6052 9.85789 12.2371 10.8059 12.0915 11.7996C11.9459 12.7933 12.0267 13.8071 12.3278 14.7652C12.7458 16.9349 13.5864 18.9637 14.3566 21.0629V21.1334C16.0286 25.9564 19.2597 37.8474 3.65817 44.1451C4.46719 44.5337 5.34878 44.7481 6.2459 44.7744H7.85678C10.5675 43.4079 12.9353 41.448 14.784 39.0402C21.9226 42.1867 28.4036 40.5806 31.2215 35.4006C32.0912 34.8514 32.8258 34.1131 33.3707 33.2406C33.9155 32.3682 34.2564 31.384 34.3681 30.3615C34.8808 29.7383 35.2426 29.005 35.4251 28.2188C35.6075 27.4327 35.6058 26.615 35.4201 25.8296C35.3496 25.5478 35.0726 25.5478 34.6499 25.7592C28.8451 29.2579 23.7354 29.8168 17.6488 27.9993C17.4867 26.0942 17.206 24.201 16.8082 22.3309C16.6673 19.8841 17.4375 18.6913 21.9179 20.1612C24.8578 20.9314 26.1869 22.2605 27.2342 22.979C27.7039 23.3265 28.352 23.7492 28.7042 23.4486C28.9155 23.3077 28.986 22.8898 28.986 22.4013C28.9155 21.0723 28.2862 18.8322 27.7273 17.9915C29.0554 17.9192 30.3865 17.9192 31.7146 17.9915C33.3959 18.2733 33.5321 19.1797 33.7435 19.5319C34.2131 20.9408 36.9605 20.5792 37.1719 19.391C37.5898 16.9443 37.7307 13.7226 35.3543 11.4872V11.4731ZM4.28749 32.4608C3.19278 32.3908 2.09471 32.3908 0.999997 32.4608V33.9307C2.87857 33.5127 4.07615 33.3014 4.07615 33.3014L4.28749 32.4608Z" fill="black"/>
<path d="M21.7817 17.1415C19.3348 16.5826 16.6156 15.8829 15.2067 13.7837C15.2067 13.7132 15.1362 13.7132 15.0658 13.7132C15.0471 13.7132 15.0292 13.7206 15.016 13.7339C15.0028 13.7471 14.9953 13.765 14.9953 13.7837C14.985 13.9039 15.0095 14.0245 15.0658 14.1312L14.8544 14.2016C14.5069 13.6428 14.3848 13.0135 14.784 12.5204C15.3429 11.8206 16.3949 11.8911 17.0946 12.309L17.0242 12.5204C16.6981 12.4356 16.3532 12.4603 16.0426 12.5908C15.9937 12.6153 15.9507 12.6501 15.9164 12.6927C15.8821 12.7354 15.8575 12.7849 15.8441 12.838C15.8307 12.891 15.829 12.9463 15.8389 13.0001C15.8489 13.0539 15.8703 13.1049 15.9018 13.1497C17.0899 15.3898 20.5982 15.8782 24.7169 15.5307C24.7811 15.54 24.8464 15.5365 24.9093 15.5206C24.9721 15.5046 25.0311 15.4764 25.083 15.4376C25.1349 15.3987 25.1787 15.3501 25.2118 15.2943C25.2448 15.2386 25.2666 15.1769 25.2758 15.1127C25.5836 13.7226 26.2601 12.441 27.2342 11.4027C26.5638 11.5124 25.8846 11.5595 25.2054 11.5435C23.1061 11.6844 21.8474 11.4027 21.4952 11.1256L21.5656 10.9142C21.777 10.9847 22.0353 10.9847 22.0353 10.9142C22.0353 10.8438 22.0353 10.7734 21.9648 10.7029C21.5703 10.3319 19.7481 8.4534 19.7481 8.4534C19.5368 6.84258 17.2308 6.84258 16.3197 8.38295L16.0379 8.31251C16.0979 8.01233 16.2159 7.72676 16.3855 7.47188C14.5069 7.88984 13.3751 9.64155 13.1684 11.2289C12.3278 18.3672 23.1718 16.686 26.2527 19.5554C26.3231 19.6258 26.464 19.8372 26.5345 19.6963C26.6049 19.5554 25.2758 17.8788 21.777 17.1086L21.7817 17.1415ZM18.0198 8.5755C18.4895 8.43461 19.2785 8.92302 19.6307 9.69321C19.9829 10.4634 19.9125 11.2336 19.4194 11.4402C18.9262 11.6469 18.1419 11.1256 17.7897 10.3319C17.7193 10.191 17.7193 10.1206 17.6488 9.98438H17.7193C17.777 10.0488 17.8514 10.0961 17.9342 10.121C18.0171 10.1458 18.1052 10.1473 18.1889 10.1253C18.4002 9.98438 18.3298 9.7073 18.1889 9.42553C18.048 9.14375 17.8414 9.00756 17.63 9.00756L17.5596 8.93711C17.6616 8.78261 17.807 8.6617 17.9776 8.58959" fill="white"/>
<path d="M34.091 27.8442C31.3725 29.5574 28.2705 30.5677 25.0645 30.7841C22.6183 30.9121 20.1666 30.6763 17.7897 30.0844C17.7887 30.7894 17.7179 31.4925 17.5784 32.1836C19.6204 32.6639 21.7083 32.9221 23.8058 32.9538C23.6649 33.724 22.8243 36.5229 20.7954 38.27C24.5526 38.4109 27.9997 36.9409 29.0517 34.9826C27.5322 35.452 25.9449 35.6647 24.3553 35.6119C24.4258 35.4005 24.5667 35.2643 24.6371 35.053C27.8542 34.9121 31.353 33.8649 32.0528 31.2068C30.7941 32.0474 28.0655 33.0242 25.196 33.1651C25.196 32.9538 25.2664 32.8176 25.2664 32.6063C29.0236 32.1366 33.0343 30.507 34.0816 27.8489" fill="white"/>
<path d="M241.837 14.5585C240.966 14.5675 240.098 14.4537 239.259 14.2204L241.781 8.61304L244.303 14.2204C243.501 14.4546 242.668 14.5685 241.833 14.5585H241.837ZM250.756 18.8227L244.866 5.99722C244.195 4.58834 243.298 3.97782 241.95 3.97782H241.725C240.316 3.97782 239.423 4.59303 238.752 5.99722L232.862 18.8415C232.304 20.133 232.693 21.2554 233.872 21.7016C234.117 21.8182 234.384 21.8831 234.655 21.8922C234.927 21.9013 235.197 21.8543 235.45 21.7543C235.702 21.6543 235.931 21.5033 236.123 21.3108C236.315 21.1183 236.464 20.8885 236.563 20.6355L237.911 17.8177C239.218 18.2261 240.58 18.4336 241.95 18.433C243.264 18.4612 244.573 18.2626 245.82 17.8459L247.111 20.6637C247.21 20.9166 247.36 21.1465 247.552 21.339C247.743 21.5315 247.972 21.6825 248.225 21.7825C248.477 21.8825 248.748 21.9294 249.019 21.9204C249.291 21.9113 249.557 21.8464 249.802 21.7297C250.868 21.2601 251.315 20.1048 250.742 18.8697L250.756 18.8227ZM229.537 17.6909H228.415V5.88451C228.422 5.59951 228.371 5.31605 228.264 5.05179C228.157 4.78753 227.997 4.54814 227.793 4.34855C227.59 4.14895 227.347 3.99342 227.081 3.89167C226.814 3.78991 226.53 3.7441 226.245 3.7571C225.961 3.74223 225.677 3.7872 225.412 3.88909C225.146 3.99098 224.905 4.14751 224.704 4.34854C224.503 4.54957 224.347 4.7906 224.245 5.05602C224.143 5.32143 224.098 5.6053 224.113 5.8892V17.6628H216.599V5.88451C216.599 5.30409 216.368 4.74745 215.958 4.33703C215.547 3.92661 214.991 3.69604 214.41 3.69604C213.83 3.69604 213.273 3.92661 212.863 4.33703C212.452 4.74745 212.222 5.30409 212.222 5.88451V19.7244C212.207 20.0083 212.252 20.2922 212.354 20.5576C212.456 20.823 212.612 21.0641 212.813 21.2651C213.014 21.4661 213.255 21.6227 213.521 21.7245C213.786 21.8264 214.07 21.8714 214.354 21.8565H227.424V23.7632C227.409 24.0471 227.454 24.331 227.556 24.5964C227.658 24.8618 227.814 25.1029 228.015 25.3039C228.216 25.5049 228.457 25.6615 228.723 25.7633C228.988 25.8652 229.272 25.9102 229.556 25.8953C229.841 25.9148 230.127 25.8729 230.395 25.7727C230.662 25.6724 230.905 25.516 231.107 25.314C231.309 25.112 231.465 24.8691 231.566 24.6016C231.666 24.3341 231.708 24.0482 231.688 23.7632V19.7949C231.688 18.386 230.848 17.6628 229.556 17.6628L229.537 17.6909ZM207.793 17.6628H206.67V5.88451C206.678 5.59785 206.626 5.31274 206.518 5.04714C206.41 4.78155 206.248 4.54123 206.042 4.34135C205.837 4.14148 205.592 3.98637 205.323 3.88581C205.055 3.78525 204.768 3.74143 204.482 3.7571C204.198 3.74223 203.914 3.7872 203.649 3.88909C203.383 3.99098 203.142 4.14751 202.941 4.34854C202.74 4.54957 202.584 4.7906 202.482 5.05602C202.38 5.32143 202.335 5.6053 202.35 5.8892V17.6628H194.835V5.88451C194.835 5.30409 194.605 4.74745 194.194 4.33703C193.784 3.92661 193.227 3.69604 192.647 3.69604C192.066 3.69604 191.51 3.92661 191.099 4.33703C190.689 4.74745 190.458 5.30409 190.458 5.88451V19.7244C190.444 20.0083 190.488 20.2922 190.59 20.5576C190.692 20.823 190.849 21.0641 191.05 21.2651C191.251 21.4661 191.492 21.6227 191.757 21.7245C192.023 21.8264 192.307 21.8714 192.591 21.8565H205.661V23.7632C205.646 24.0471 205.691 24.331 205.793 24.5964C205.895 24.8618 206.051 25.1029 206.252 25.3039C206.453 25.5049 206.694 25.6615 206.96 25.7633C207.225 25.8652 207.509 25.9102 207.793 25.8953C208.078 25.9148 208.364 25.8729 208.631 25.7727C208.899 25.6724 209.142 25.516 209.344 25.314C209.546 25.112 209.702 24.8691 209.802 24.6016C209.903 24.3341 209.944 24.0482 209.925 23.7632V19.7949C209.925 18.386 209.084 17.6628 207.793 17.6628ZM183.616 3.92147H183.447C182.155 3.92147 181.314 4.53668 180.417 5.82815L173.359 15.8688V6.05357C173.359 5.49309 173.136 4.95555 172.74 4.55923C172.343 4.1629 171.806 3.94025 171.245 3.94025C170.685 3.94025 170.147 4.1629 169.751 4.55923C169.355 4.95555 169.132 5.49309 169.132 6.05357V19.4051C169.11 19.7276 169.158 20.051 169.272 20.3536C169.386 20.6562 169.563 20.931 169.791 21.1596C170.02 21.3882 170.295 21.5653 170.597 21.679C170.9 21.7927 171.223 21.8404 171.546 21.819H171.771C173.119 21.819 174.016 21.1474 174.857 19.9123L181.902 9.87165V19.6869C181.902 20.2374 182.12 20.7654 182.51 21.1546C182.899 21.5439 183.427 21.7626 183.977 21.7626C184.528 21.7626 185.056 21.5439 185.445 21.1546C185.834 20.7654 186.053 20.2374 186.053 19.6869V6.33535C186.053 4.87481 185.156 3.92147 183.583 3.92147H183.616ZM162.491 3.92147H150.374C150.089 3.90203 149.804 3.94385 149.536 4.04412C149.269 4.1444 149.026 4.3008 148.824 4.5028C148.622 4.70479 148.465 4.94771 148.365 5.21521C148.265 5.4827 148.223 5.76857 148.242 6.05357V19.9076C148.234 20.1946 148.285 20.4803 148.393 20.7464C148.501 21.0126 148.663 21.2535 148.869 21.4538C149.074 21.6542 149.319 21.8098 149.588 21.9106C149.857 22.0114 150.144 22.0554 150.431 22.0397C150.715 22.0546 150.999 22.0096 151.264 21.9077C151.529 21.8058 151.77 21.6493 151.971 21.4482C152.173 21.2472 152.329 21.0062 152.431 20.7408C152.533 20.4754 152.578 20.1915 152.563 19.9076V8.12933H160.303V19.9076C160.29 20.1958 160.338 20.4834 160.445 20.7516C160.551 21.0197 160.713 21.2624 160.919 21.4637C161.126 21.665 161.373 21.8204 161.644 21.9196C161.915 22.0189 162.203 22.0598 162.491 22.0397C162.782 22.0538 163.073 22.0068 163.345 21.9018C163.617 21.7968 163.864 21.6361 164.07 21.43C164.276 21.2239 164.437 20.977 164.542 20.7051C164.647 20.4332 164.694 20.1424 164.68 19.8512V5.99722C164.686 5.71309 164.634 5.4307 164.524 5.16827C164.415 4.90584 164.252 4.6692 164.046 4.47361C163.84 4.27802 163.595 4.12784 163.327 4.03273C163.059 3.93763 162.775 3.89973 162.491 3.92147ZM131.166 17.9445C128.306 17.9445 126.286 15.8124 126.286 12.896C126.262 12.2433 126.37 11.5923 126.605 10.9828C126.84 10.3733 127.196 9.81804 127.653 9.3509C128.11 8.88376 128.657 8.51454 129.261 8.26576C129.865 8.01698 130.513 7.89386 131.166 7.90391C134.026 7.90391 136.046 10.036 136.046 12.896C136.046 15.7561 134.083 17.9445 131.166 17.9445ZM131.166 3.80876C129.955 3.77942 128.75 3.99545 127.624 4.44386C126.498 4.89226 125.475 5.56377 124.615 6.41798C123.756 7.27219 123.078 8.29144 122.623 9.4144C122.167 10.5374 121.944 11.7408 121.966 12.9524C121.966 18.2263 125.948 22.096 131.166 22.096C132.379 22.1144 133.584 21.889 134.708 21.4332C135.833 20.9773 136.855 20.3003 137.713 19.4424C138.571 18.5844 139.248 17.5628 139.703 16.4384C140.159 15.3139 140.385 14.1093 140.366 12.896C140.31 7.62213 136.327 3.80876 131.166 3.80876ZM113.498 17.6628H106.453C106.927 16.6985 107.285 15.6818 107.52 14.6337C107.807 13.1727 107.964 11.6891 107.989 10.2004L108.046 8.12463H113.54L113.498 17.6628ZM118.941 17.6628H117.819V6.05357C117.834 5.76967 117.789 5.4858 117.687 5.22039C117.585 4.95497 117.428 4.71394 117.227 4.51291C117.026 4.31188 116.785 4.15535 116.52 4.05346C116.254 3.95157 115.971 3.9066 115.687 3.92147H105.758C104.58 3.92147 103.795 4.70574 103.795 6.05357V8.87134C103.837 10.6341 103.699 12.3966 103.382 14.1312C103.178 15.3976 102.697 16.6034 101.973 17.6628H101.503C100.095 17.6628 99.4276 18.5598 99.4276 19.7949V23.7773C99.4128 24.0612 99.4577 24.3451 99.5596 24.6105C99.6615 24.8759 99.8181 25.1169 100.019 25.318C100.22 25.519 100.461 25.6755 100.727 25.7774C100.992 25.8793 101.276 25.9243 101.56 25.9094C101.845 25.9289 102.131 25.887 102.398 25.7868C102.666 25.6865 102.909 25.5301 103.111 25.3281C103.313 25.1261 103.469 24.8832 103.569 24.6157C103.67 24.3482 103.711 24.0623 103.692 23.7773V21.8706H116.762V23.7773C116.747 24.06 116.792 24.3426 116.893 24.607C116.994 24.8714 117.149 25.1117 117.349 25.3125C117.548 25.5133 117.788 25.6702 118.051 25.773C118.315 25.8758 118.597 25.9223 118.88 25.9094C119.165 25.9289 119.451 25.887 119.719 25.7868C119.986 25.6865 120.229 25.5301 120.431 25.3281C120.633 25.1261 120.789 24.8832 120.89 24.6157C120.99 24.3482 121.032 24.0623 121.012 23.7773V19.7949C121.069 18.5598 120.397 17.6628 118.937 17.6628H118.941ZM89.8188 17.9445C86.9586 17.9445 84.9392 15.8124 84.9392 12.896C84.9142 12.2433 85.0225 11.5923 85.2574 10.9828C85.4924 10.3733 85.849 9.81804 86.3056 9.3509C86.7622 8.88376 87.3092 8.51454 87.9132 8.26576C88.5172 8.01698 89.1656 7.89386 89.8188 7.90391C92.6789 7.90391 94.6983 10.036 94.6983 12.896C94.6983 15.7561 92.7916 17.9445 89.8188 17.9445ZM89.8188 3.80876C88.6073 3.77942 87.4025 3.99545 86.2767 4.44386C85.1509 4.89226 84.1275 5.56377 83.268 6.41798C82.4085 7.27219 81.7307 8.29144 81.2753 9.4144C80.82 10.5374 80.5966 11.7408 80.6185 12.9524C80.6279 18.2263 84.5963 22.0726 89.8281 22.0726C91.0414 22.0909 92.246 21.8655 93.3706 21.4097C94.4951 20.9538 95.5167 20.2769 96.3747 19.4189C97.2327 18.5609 97.9097 17.5394 98.3655 16.4149C98.8214 15.2904 99.0468 14.0858 99.0284 12.8726C99.0284 7.59865 95.0459 3.78527 89.8281 3.78527L89.8188 3.80876ZM72.0475 17.6393H65.0029C65.4761 16.675 65.8339 15.6583 66.0689 14.6102C66.3566 13.1493 66.5138 11.6657 66.5386 10.1769L66.5949 8.10115H72.0898L72.0475 17.6393ZM77.4906 17.6393H76.3682V6.05357C76.3831 5.76967 76.3381 5.4858 76.2362 5.22039C76.1343 4.95497 75.9778 4.71394 75.7767 4.51291C75.5757 4.31188 75.3347 4.15535 75.0692 4.05346C74.8038 3.95157 74.5199 3.9066 74.236 3.92147H64.3078C63.129 3.92147 62.3447 4.70574 62.3447 6.05357V8.87134C62.3447 10.8907 62.3447 12.4593 61.9502 14.1453C61.7459 15.4117 61.2648 16.6175 60.5413 17.6769H60.0716C58.6627 17.6769 57.9958 18.5738 57.9958 19.809V23.7914C57.9823 24.0784 58.03 24.3649 58.1356 24.6321C58.2412 24.8993 58.4023 25.1409 58.6083 25.3412C58.8143 25.5414 59.0605 25.6956 59.3306 25.7936C59.6007 25.8915 59.8885 25.931 60.1749 25.9094C60.46 25.9289 60.7458 25.887 61.0133 25.7868C61.2808 25.6865 61.5238 25.5301 61.7258 25.3281C61.9278 25.1261 62.0842 24.8832 62.1845 24.6157C62.2847 24.3482 62.3265 24.0623 62.3071 23.7773V21.8706H75.3773V23.7773C75.3624 24.0612 75.4074 24.3451 75.5092 24.6105C75.6111 24.8759 75.7677 25.1169 75.9687 25.318C76.1698 25.519 76.4108 25.6755 76.6762 25.7774C76.9416 25.8793 77.2255 25.9243 77.5094 25.9094C77.7945 25.9289 78.0803 25.887 78.3478 25.7868C78.6153 25.6865 78.8583 25.5301 79.0603 25.3281C79.2623 25.1261 79.4187 24.8832 79.5189 24.6157C79.6192 24.3482 79.661 24.0623 79.6416 23.7773V19.7949C79.6416 18.5598 78.97 17.6628 77.5094 17.6628" fill="black"/>
<path d="M62.711 42.4777C64.026 42.4777 64.5896 41.6888 65.0592 41.6888C65.3175 41.6888 65.4913 41.886 65.4913 42.196C65.4913 42.7501 64.2467 43.4123 62.711 43.4123C60.1749 43.4123 58.8693 41.2332 58.8693 38.9555C58.8693 36.6778 60.1749 34.4988 62.7721 34.4988C64.3219 34.4988 65.3081 35.3347 65.3081 35.7809C65.3146 35.8441 65.3081 35.9079 65.2892 35.9685C65.2703 36.0292 65.2392 36.0853 65.1979 36.1336C65.1567 36.1819 65.106 36.2213 65.0491 36.2495C64.9921 36.2777 64.9301 36.294 64.8667 36.2975C64.397 36.2975 64.1293 35.438 62.7721 35.438C60.8277 35.438 60.0246 37.2837 60.0246 38.9602C60.0246 40.6368 60.8512 42.4777 62.711 42.4777Z" fill="black"/>
<path d="M69.6147 42.4778C71.0565 42.4778 71.4228 41.5902 71.8314 41.5902C71.8883 41.5949 71.9436 41.6108 71.9942 41.637C72.0448 41.6632 72.0898 41.6992 72.1265 41.7429C72.1631 41.7865 72.1908 41.837 72.2079 41.8914C72.225 41.9458 72.2311 42.003 72.2259 42.0598C72.2259 42.5905 70.8828 43.4029 69.6053 43.4029C67.5107 43.4029 66.5996 41.7921 66.5996 40.0545C66.5996 38.3169 67.708 36.7061 69.5443 36.7061C71.3806 36.7061 72.3621 38.3169 72.3621 39.8948C72.3621 40.2752 72.2259 40.4725 71.761 40.4725H67.6892C67.6714 40.7336 67.7084 40.9956 67.7978 41.2416C67.8872 41.4876 68.0271 41.7122 68.2084 41.901C68.3897 42.0898 68.6084 42.2387 68.8506 42.338C69.0928 42.4373 69.3531 42.4849 69.6147 42.4778ZM69.5396 37.65C68.1964 37.603 67.7174 38.6738 67.661 39.6694H71.2538C71.2773 38.7348 70.7372 37.65 69.5443 37.65H69.5396Z" fill="black"/>
<path d="M73.1981 37.2838C73.1973 37.2157 73.2114 37.1483 73.2392 37.0862C73.2671 37.0241 73.3082 36.9688 73.3595 36.9241C73.4109 36.8794 73.4714 36.8464 73.5368 36.8275C73.6022 36.8085 73.6709 36.8039 73.7382 36.8142H77.5517C77.619 36.8039 77.6877 36.8085 77.7531 36.8275C77.8185 36.8464 77.879 36.8794 77.9303 36.9241C77.9817 36.9688 78.0228 37.0241 78.0506 37.0862C78.0785 37.1483 78.0925 37.2157 78.0918 37.2838C78.0976 37.3546 78.0873 37.4257 78.0616 37.4919C78.036 37.5581 77.9956 37.6177 77.9436 37.666C77.8916 37.7144 77.8294 37.7504 77.7615 37.7712C77.6936 37.792 77.6219 37.7972 77.5517 37.7863H76.1897V42.7737C76.1897 43.1682 75.9784 43.4124 75.6496 43.4124C75.3209 43.4124 75.1189 43.1682 75.1189 42.7737V37.7863H73.7382C73.668 37.7972 73.5963 37.792 73.5284 37.7712C73.4605 37.7504 73.3982 37.7144 73.3463 37.666C73.2943 37.6177 73.2539 37.5581 73.2283 37.4919C73.2026 37.4257 73.1923 37.3546 73.1981 37.2838Z" fill="black"/>
<path d="M84.4225 41.3837C84.4225 42.4169 83.6711 43.342 81.9241 43.342H79.9422C79.5242 43.342 79.3269 43.1448 79.3269 42.7738V37.3543C79.3269 36.9598 79.5242 36.7156 79.8576 36.7156C80.1911 36.7156 80.3977 36.9598 80.3977 37.3543V39.4488H82.1683C83.7228 39.4488 84.4225 40.2613 84.4225 41.3837ZM83.3518 41.3837C83.3518 40.745 82.9338 40.3881 81.9428 40.3881H80.4024V42.3699H81.9428C82.7177 42.3793 83.3518 42.1304 83.3518 41.3931V41.3837Z" fill="black"/>
<path d="M89.9268 43.4123C89.5933 43.4123 89.3961 43.1681 89.3961 42.7736V37.3682C89.3961 36.9737 89.5933 36.7905 89.9362 36.7905H94.0502C94.1748 36.7905 94.2942 36.84 94.3823 36.9281C94.4704 37.0162 94.5199 37.1356 94.5199 37.2602V42.7736C94.5199 43.1681 94.3226 43.4123 93.9798 43.4123C93.6369 43.4123 93.4491 43.1681 93.4491 42.7736V37.7767H90.4434V42.7736C90.4668 43.1681 90.2555 43.4123 89.9268 43.4123Z" fill="black"/>
<path d="M96.9667 43.4125C96.6567 43.4125 96.4642 43.2387 96.4642 42.7832V37.3543C96.4642 36.9457 96.6614 36.7156 96.9949 36.7156C97.3283 36.7156 97.535 36.9504 97.535 37.3543V41.5293L100.588 37.1335C100.771 36.8893 100.93 36.7156 101.24 36.7156C101.55 36.7156 101.757 36.9269 101.757 37.3167V42.7738C101.757 43.1683 101.56 43.4125 101.217 43.4125C100.874 43.4125 100.686 43.1683 100.686 42.7738V38.5471L97.5819 42.9804C97.3988 43.2669 97.2767 43.4125 96.9667 43.4125Z" fill="black"/>
<path d="M103.673 42.8724V37.3543C103.673 36.9598 103.87 36.7156 104.204 36.7156C104.537 36.7156 104.744 36.9598 104.744 37.3543V42.3558H107.75V37.3543C107.75 36.9598 107.947 36.7156 108.28 36.7156C108.614 36.7156 108.82 36.9598 108.82 37.3543V42.3558H109.337C109.407 42.3532 109.478 42.3651 109.543 42.3908C109.609 42.4166 109.668 42.4556 109.718 42.5054C109.768 42.5552 109.807 42.6147 109.833 42.6803C109.858 42.7459 109.87 42.8161 109.868 42.8865V44.5349C109.868 44.9528 109.671 45.1736 109.351 45.1736C109.032 45.1736 108.835 44.9528 108.835 44.5349V43.3373H104.166C104.103 43.3405 104.04 43.3308 103.98 43.309C103.921 43.2871 103.867 43.2534 103.821 43.21C103.775 43.1665 103.738 43.1143 103.712 43.0562C103.687 42.9982 103.674 42.9357 103.673 42.8724Z" fill="black"/>
<path d="M111.23 42.8724V37.3543C111.23 36.9598 111.427 36.7156 111.76 36.7156C112.094 36.7156 112.301 36.9598 112.301 37.3543V42.3558H115.306V37.3543C115.306 36.9598 115.503 36.7156 115.837 36.7156C116.17 36.7156 116.377 36.9598 116.377 37.3543V42.3558H116.894C116.964 42.3532 117.034 42.3651 117.1 42.3908C117.165 42.4166 117.225 42.4556 117.275 42.5054C117.325 42.5552 117.364 42.6147 117.389 42.6803C117.415 42.7459 117.427 42.8161 117.424 42.8865V44.5349C117.424 44.9528 117.227 45.1736 116.908 45.1736C116.588 45.1736 116.391 44.9528 116.391 44.5349V43.3373H111.723C111.66 43.3405 111.596 43.3308 111.537 43.309C111.478 43.2871 111.423 43.2534 111.377 43.21C111.331 43.1665 111.294 43.1143 111.269 43.0562C111.244 42.9982 111.23 42.9357 111.23 42.8724Z" fill="black"/>
<path d="M121.412 42.4778C122.853 42.4778 123.22 41.5902 123.628 41.5902C123.685 41.5949 123.74 41.6108 123.791 41.637C123.842 41.6632 123.887 41.6992 123.923 41.7429C123.96 41.7865 123.988 41.837 124.005 41.8914C124.022 41.9458 124.028 42.003 124.023 42.0598C124.023 42.5905 122.68 43.4029 121.402 43.4029C119.308 43.4029 118.396 41.7921 118.396 40.0545C118.396 38.3169 119.505 36.7061 121.341 36.7061C123.177 36.7061 124.159 38.3169 124.159 39.8948C124.159 40.2752 124.023 40.4725 123.553 40.4725H119.477C119.459 40.7344 119.496 40.9972 119.586 41.2439C119.676 41.4906 119.817 41.7156 119.999 41.9046C120.181 42.0936 120.401 42.2422 120.645 42.3409C120.888 42.4396 121.149 42.4863 121.412 42.4778ZM121.336 37.65C119.993 37.603 119.514 38.6738 119.458 39.6694H123.055C123.074 38.7348 122.529 37.65 121.336 37.65Z" fill="black"/>
<path d="M126.272 36.7155C126.347 36.7123 126.422 36.7254 126.492 36.7539C126.561 36.7823 126.624 36.8254 126.675 36.8803C126.726 36.9351 126.765 37.0004 126.789 37.0717C126.813 37.1429 126.821 37.2185 126.812 37.2931V37.6125H126.836C127.008 37.3089 127.265 37.0622 127.575 36.9029C127.886 36.7435 128.236 36.6784 128.583 36.7155C130.358 36.7155 131.401 38.3263 131.401 40.0639C131.401 41.8015 130.377 43.4124 128.583 43.4124C128.242 43.4141 127.906 43.3345 127.602 43.1801C127.298 43.0257 127.036 42.8011 126.836 42.5248H126.812V45.4177C126.82 45.4931 126.811 45.5692 126.787 45.6411C126.763 45.713 126.724 45.7791 126.673 45.8351C126.622 45.8911 126.559 45.9359 126.49 45.9665C126.421 45.9971 126.346 46.013 126.27 46.013C126.194 46.013 126.119 45.9971 126.05 45.9665C125.981 45.9359 125.918 45.8911 125.867 45.8351C125.816 45.7791 125.778 45.713 125.753 45.6411C125.729 45.5692 125.721 45.4931 125.728 45.4177V37.2931C125.719 37.2181 125.727 37.1421 125.751 37.0705C125.775 36.9989 125.815 36.9334 125.867 36.8784C125.918 36.8235 125.981 36.7805 126.052 36.7523C126.122 36.7242 126.197 36.7116 126.272 36.7155ZM128.503 42.4778C129.832 42.4778 130.302 41.1722 130.302 40.0639C130.302 38.9556 129.832 37.65 128.503 37.65C127.174 37.65 126.704 38.9556 126.704 40.0639C126.704 41.1722 127.174 42.4778 128.503 42.4778Z" fill="black"/>
<path d="M133.524 43.4125C133.214 43.4125 133.016 43.2387 133.016 42.7832V37.3543C133.016 36.9457 133.214 36.7156 133.547 36.7156C133.881 36.7156 134.087 36.9504 134.087 37.3543V41.5293L137.14 37.1335C137.203 37.013 137.296 36.911 137.411 36.8377C137.525 36.7644 137.657 36.7223 137.793 36.7156C138.089 36.7156 138.309 36.9269 138.309 37.3167V42.7738C138.309 43.1683 138.112 43.4125 137.769 43.4125C137.426 43.4125 137.239 43.1683 137.239 42.7738V38.5471L134.134 42.9804C133.956 43.2669 133.82 43.4125 133.524 43.4125Z" fill="black"/>
<path d="M140.737 43.4124C140.427 43.4124 140.23 43.2386 140.23 42.7831V37.3542C140.23 36.9456 140.427 36.7155 140.761 36.7155C141.094 36.7155 141.301 36.9503 141.301 37.3542V41.5291L144.354 37.1334C144.417 37.0129 144.51 36.9109 144.624 36.8376C144.739 36.7643 144.871 36.7222 145.006 36.7155C145.302 36.7155 145.523 36.9268 145.523 37.3166V42.7737C145.523 43.1681 145.326 43.4124 144.983 43.4124C144.64 43.4124 144.452 43.1681 144.452 42.7737V38.547L141.348 42.9803C141.165 43.2668 141.033 43.4124 140.737 43.4124ZM141.649 34.3157C142.029 34.3157 142.24 35.0154 142.931 35.0154C143.621 35.0154 143.828 34.3157 144.213 34.3157C144.267 34.3179 144.321 34.3314 144.37 34.3552C144.419 34.3789 144.463 34.4126 144.499 34.4539C144.534 34.4953 144.561 34.5436 144.577 34.5957C144.594 34.6479 144.599 34.7028 144.593 34.7571C144.593 35.485 143.607 35.95 142.931 35.95C142.254 35.95 141.268 35.4804 141.268 34.7571C141.262 34.7028 141.268 34.6479 141.284 34.5957C141.3 34.5436 141.327 34.4953 141.363 34.4539C141.398 34.4126 141.442 34.3789 141.491 34.3552C141.54 34.3314 141.594 34.3179 141.649 34.3157Z" fill="black"/>
<path d="M156.996 43.4125C156.715 43.4125 156.578 43.2763 156.358 42.9428L152.159 36.5888H152.136V42.7597C152.136 43.1917 151.938 43.4125 151.596 43.4125C151.253 43.4125 151.055 43.1917 151.055 42.7597V35.1141C151.045 35.0373 151.052 34.9592 151.074 34.8851C151.097 34.811 151.135 34.7425 151.186 34.6843C151.237 34.6261 151.3 34.5794 151.371 34.5475C151.441 34.5155 151.518 34.499 151.596 34.4989C151.905 34.4989 152.065 34.6586 152.272 34.9686L156.419 41.2616H156.452V35.1564C156.452 34.7244 156.649 34.5036 156.992 34.5036C157.335 34.5036 157.532 34.7244 157.532 35.1564V42.7738C157.527 43.2528 157.306 43.4125 156.996 43.4125ZM163.102 36.9128C163.12 37.2232 163.075 37.5341 162.969 37.8263C162.863 38.1186 162.698 38.386 162.485 38.6122C162.271 38.8383 162.014 39.0184 161.728 39.1413C161.443 39.2642 161.135 39.3273 160.824 39.3267C159.359 39.3267 158.56 38.1339 158.56 36.8893C158.56 35.6448 159.359 34.4661 160.824 34.4661C162.289 34.4661 163.102 35.6589 163.102 36.9128ZM162.928 40.6698C162.924 40.7365 162.908 40.8018 162.878 40.8618C162.849 40.9218 162.808 40.9753 162.758 41.0192C162.707 41.063 162.648 41.0962 162.585 41.1169C162.521 41.1376 162.454 41.1452 162.388 41.1395H159.269C159.145 41.1395 159.025 41.09 158.937 41.0019C158.849 40.9138 158.8 40.7944 158.8 40.6698C158.8 40.5453 158.849 40.4258 158.937 40.3378C159.025 40.2497 159.145 40.2002 159.269 40.2002H162.374C162.444 40.1916 162.515 40.1979 162.582 40.2187C162.649 40.2395 162.711 40.2744 162.764 40.321C162.817 40.3676 162.859 40.4249 162.888 40.4891C162.917 40.5533 162.933 40.6229 162.933 40.6933L162.928 40.6698ZM159.565 36.8659C159.565 37.6783 159.974 38.4908 160.819 38.4908C161.665 38.4908 162.087 37.7018 162.087 36.9128C162.087 36.1238 161.693 35.2738 160.833 35.2738C159.974 35.2738 159.57 36.0769 159.57 36.8893L159.565 36.8659Z" fill="black"/>
<path d="M168.047 35.0436C168.047 34.919 168.097 34.7996 168.185 34.7115C168.273 34.6235 168.392 34.574 168.517 34.574H170.395C170.607 34.574 170.729 34.5975 170.729 34.8698V42.8535C170.736 42.929 170.727 43.0051 170.703 43.077C170.679 43.1488 170.64 43.2149 170.589 43.2709C170.538 43.327 170.476 43.3717 170.406 43.4024C170.337 43.433 170.262 43.4488 170.186 43.4488C170.111 43.4488 170.036 43.433 169.966 43.4024C169.897 43.3717 169.835 43.327 169.784 43.2709C169.733 43.2149 169.694 43.1488 169.67 43.077C169.646 43.0051 169.637 42.929 169.644 42.8535V35.5085H168.512C168.389 35.5073 168.272 35.4579 168.185 35.371C168.098 35.2841 168.048 35.1665 168.047 35.0436Z" fill="black"/>
<path d="M177.355 36.7905H179.234C180.464 36.7905 181.329 37.2602 181.329 38.4389C181.336 38.7462 181.243 39.0474 181.063 39.2966C180.883 39.5459 180.627 39.7296 180.333 39.8196V39.8431C181.427 39.9793 181.859 40.6086 181.859 41.4304C181.859 42.5153 181.009 43.3371 179.361 43.3371H177.379C176.961 43.3371 176.764 43.1399 176.764 42.7689V37.3447C176.74 36.9737 176.937 36.7905 177.355 36.7905ZM180.248 38.5657C180.248 37.9881 179.779 37.7063 179.093 37.7063H177.811V39.505H178.905C179.708 39.5003 180.248 39.2889 180.248 38.561V38.5657ZM180.765 41.4445C180.765 40.8058 180.347 40.4114 179.253 40.4114H177.811V42.4308H179.351C180.187 42.4261 180.765 42.1208 180.765 41.4445Z" fill="black"/>
<path d="M187.5 43.4123C187.426 43.4127 187.353 43.3976 187.286 43.368C187.219 43.3383 187.159 43.2948 187.11 43.2403C187.06 43.1857 187.023 43.1214 187.001 43.0515C186.978 42.9816 186.97 42.9077 186.978 42.8346V35.1656C186.97 35.087 186.979 35.0075 187.004 34.9328C187.03 34.858 187.072 34.7899 187.127 34.7334C187.183 34.6768 187.25 34.6332 187.324 34.6056C187.398 34.578 187.477 34.5672 187.556 34.5739H189.698C190.07 34.5516 190.442 34.6069 190.792 34.7364C191.141 34.8659 191.46 35.0666 191.727 35.3259C191.995 35.5851 192.206 35.8973 192.346 36.2424C192.487 36.5875 192.554 36.9581 192.544 37.3306C192.544 37.697 192.471 38.0597 192.329 38.3973C192.187 38.7348 191.978 39.0402 191.715 39.2953C191.452 39.5504 191.14 39.7499 190.798 39.8819C190.457 40.014 190.092 40.0758 189.726 40.0638H188.049V42.8346C188.058 42.9101 188.049 42.9865 188.025 43.0585C188.001 43.1304 187.961 43.1962 187.909 43.2512C187.856 43.3062 187.793 43.3492 187.722 43.377C187.651 43.4048 187.575 43.4169 187.5 43.4123ZM191.44 37.3071C191.455 37.0618 191.418 36.816 191.331 36.5863C191.243 36.3566 191.107 36.1484 190.932 35.9757C190.757 35.803 190.547 35.6698 190.316 35.5852C190.086 35.5005 189.839 35.4664 189.594 35.485H188.044V39.1058H189.646C189.881 39.1115 190.115 39.0696 190.334 38.9826C190.553 38.8956 190.752 38.7653 190.919 38.5995C191.086 38.4337 191.218 38.2358 191.307 38.0178C191.395 37.7997 191.439 37.566 191.435 37.3306L191.44 37.3071Z" fill="black"/>
<path d="M196.432 36.7156C198.278 36.7156 199.311 38.3264 199.311 40.064C199.311 41.8016 198.278 43.4125 196.432 43.4125C194.587 43.4125 193.553 41.7969 193.553 40.064C193.553 38.3311 194.587 36.7156 196.432 36.7156ZM196.432 42.4779C197.761 42.4779 198.231 41.1723 198.231 40.064C198.231 38.9557 197.761 37.6501 196.432 37.6501C195.103 37.6501 194.634 38.9557 194.634 40.064C194.634 41.1723 195.103 42.4779 196.432 42.4779Z" fill="black"/>
<path d="M203.622 36.7156C204.731 36.7156 205.384 37.096 205.384 37.5421C205.384 37.6619 205.338 37.7773 205.256 37.8646C205.174 37.9519 205.062 38.0046 204.942 38.0117C204.524 38.0117 204.365 37.6689 203.627 37.6689C202.284 37.6689 201.749 38.9745 201.749 40.0828C201.749 41.1911 202.279 42.4967 203.627 42.4967C204.393 42.4967 204.566 42.1257 204.933 42.1257C204.993 42.1228 205.053 42.1334 205.109 42.1567C205.164 42.18 205.214 42.2155 205.254 42.2606C205.294 42.3056 205.324 42.3591 205.34 42.417C205.357 42.4749 205.361 42.5358 205.351 42.5953C205.351 43.0039 204.75 43.4453 203.627 43.4453C201.631 43.4453 200.673 41.8345 200.673 40.0969C200.673 38.3593 201.626 36.7156 203.622 36.7156Z" fill="black"/>
<path d="M209.582 36.7156C210.691 36.7156 211.343 37.096 211.343 37.5421C211.344 37.6619 211.298 37.7773 211.216 37.8646C211.134 37.9519 211.022 38.0046 210.902 38.0117C210.484 38.0117 210.324 37.6689 209.587 37.6689C208.244 37.6689 207.708 38.9745 207.708 40.0828C207.708 41.1911 208.239 42.4967 209.587 42.4967C210.352 42.4967 210.526 42.1257 210.893 42.1257C210.953 42.1228 211.013 42.1334 211.068 42.1567C211.124 42.18 211.174 42.2155 211.214 42.2606C211.254 42.3056 211.283 42.3591 211.3 42.417C211.317 42.4749 211.32 42.5358 211.311 42.5953C211.311 43.0039 210.709 43.4453 209.587 43.4453C207.591 43.4453 206.633 41.8345 206.633 40.0969C206.633 38.3593 207.586 36.7156 209.582 36.7156Z" fill="black"/>
<path d="M213.372 43.4125C213.062 43.4125 212.865 43.2387 212.865 42.7832V37.3543C212.865 36.9457 213.062 36.7156 213.396 36.7156C213.729 36.7156 213.936 36.9504 213.936 37.3543V41.5293L216.989 37.1335C217.051 37.013 217.145 36.911 217.259 36.8377C217.374 36.7644 217.506 36.7223 217.641 36.7156C217.937 36.7156 218.158 36.9269 218.158 37.3167V42.7738C218.158 43.1683 217.961 43.4125 217.618 43.4125C217.275 43.4125 217.087 43.1683 217.087 42.7738V38.5471L213.983 42.9804C213.8 43.2669 213.668 43.4125 213.372 43.4125Z" fill="black"/>
<path d="M220.586 43.4125C220.276 43.4125 220.079 43.2387 220.079 42.7832V37.3543C220.079 36.9457 220.276 36.7156 220.609 36.7156C220.943 36.7156 221.15 36.9504 221.15 37.3543V41.5293L224.202 37.1335C224.265 37.013 224.358 36.911 224.473 36.8377C224.587 36.7644 224.719 36.7223 224.855 36.7156C225.151 36.7156 225.372 36.9269 225.372 37.3167V42.7738C225.372 43.1683 225.174 43.4125 224.832 43.4125C224.489 43.4125 224.301 43.1683 224.301 42.7738V38.5471L221.196 42.9804C221.013 43.2669 220.877 43.4125 220.586 43.4125Z" fill="black"/>
</svg>
